PathFileType	4	(X/Y/Z)	/Users/niels/Desktop/University/Third Semester/Perception and Action/Exam/Gymnastics Motion Tracking/Code for Gym Tracking/Analyzed Data/Webcam_Backflip/id4_2_pure_Sports2D/id4_2_pure_Sports2D_px_person00.trc
DataRate	CameraRate	NumFrames	NumMarkers	Units	OrigDataRate	OrigDataStartFrame	OrigNumFrames
29.8125	29.8125	7	22	m	29.8125	80	160
Frame#	Time	Hip			RHip			RKnee			RAnkle			RBigToe			RSmallToe			RHeel			LHip			LKnee			LAnkle			LBigToe			LSmallToe			LHeel			Neck			Head			Nose			RShoulder			RElbow			RWrist			LShoulder			LElbow			LWrist		
		X1	Y1	Z1	X2	Y2	Z2	X3	Y3	Z3	X4	Y4	Z4	X5	Y5	Z5	X6	Y6	Z6	X7	Y7	Z7	X8	Y8	Z8	X9	Y9	Z9	X10	Y10	Z10	X11	Y11	Z11	X12	Y12	Z12	X13	Y13	Z13	X14	Y14	Z14	X15	Y15	Z15	X16	Y16	Z16	X17	Y17	Z17	X18	Y18	Z18	X19	Y19	Z19	X20	Y20	Z20	X21	Y21	Z21	X22	Y22	Z22
80	2.683438155136268	0.9569140268383696	-0.6144977869000442	0.0	0.9499510478836956	-0.6150387322406238	0.0	0.9875148623722252	-0.7170042613795303	0.0	0.941495543127433	-0.813506355428186	0.0	0.9792566174628602	-0.8334551605160263	0.0	0.9686265491378893	-0.8337906804108015	0.0	0.9293936491029727	-0.822715339876807	0.0	0.9634489489697434	-0.6151562899108634	0.0	0.9917552307470738	-0.7166037677435051	0.0	0.9445778191761768	-0.8066019097343442	0.0	0.9870656699013054	-0.8279553180582808	0.0	0.9795180431821643	-0.8239704939438631	0.0	0.931609145205348	-0.8153040901325338	0.0	0.98035984449447	-0.4642391462796666	0.0	1.0022335044374528	-0.4030497026311203	0.0	1.0034177264435344	-0.4343614293222889	0.0	0.9584633047204447	-0.4788640303941384	0.0	0.9301481600549782	-0.5447218716543166	0.0	0.984340255409641	-0.5535839940525652	0.0	0.9868865424246464	-0.48505647408346897	0.0	0.9783366564100995	-0.5487634723901886	0.0	1.0209638278878514	-0.578274904223124	0.0
81	2.716981132075471	0.954681770257113	-0.6065423789682011	0.0	0.9479589354501815	-0.6075986744896904	0.0	0.987682981984574	-0.7094254664613048	0.0	0.9417148547949278	-0.8057239169655868	0.0	0.9790518094556658	-0.8270080173836548	0.0	0.9688207147709827	-0.82750050295524	0.0	0.9293794224694201	-0.8164631452088142	0.0	0.96020171751666	-0.6072317991769361	0.0	0.9894619368914341	-0.7092573415196008	0.0	0.944344968300932	-0.8014586912792515	0.0	0.9867652109956926	-0.8223634854769328	0.0	0.9795002996149828	-0.8188680740307734	0.0	0.9315208878662454	-0.8112571236181892	0.0	0.9791916054206199	-0.4581276607765036	0.0	1.0022687771157623	-0.3973617918233575	0.0	1.0029523470539015	-0.428645950442725	0.0	0.9577071650418677	-0.4726510122473777	0.0	0.9299313870496216	-0.5395561470279984	0.0	0.9807620664272506	-0.564851462697509	0.0	0.9854304020543067	-0.4784461484773235	0.0	0.9772674411651019	-0.5422990685469661	0.0	1.0173000643194976	-0.5739702930421569	0.0
82	2.7505241090146746	0.9532845146371105	-0.596108916732645	0.0	0.9464913487747988	-0.5976836353806352	0.0	0.9867532652229215	-0.6995054500482407	0.0	0.9417040149823216	-0.7961078964867417	0.0	0.9783491252202304	-0.8185864657681375	0.0	0.9684424308946421	-0.8194423135543931	0.0	0.9293283301646879	-0.808617912914238	0.0	0.957910277201444	-0.5967304571119876	0.0	0.987503506967407	-0.699199322384462	0.0	0.9442441214226003	-0.7932382892898976	0.0	0.9858392647099331	-0.8146957524396001	0.0	0.9788149258695737	-0.8114602166348641	0.0	0.931348289066543	-0.8044327058917775	0.0	0.9777715253741184	-0.4489742743042605	0.0	1.0020592177219183	-0.3881396756162886	0.0	1.0020280212482977	-0.4197772136232434	0.0	0.9571100894028647	-0.4634811028598898	0.0	0.9311052021721514	-0.5311967729838225	0.0	0.9772872797271894	-0.5707520977519644	0.0	0.983469447420549	-0.46864818393195395	0.0	0.9748995623252383	-0.5320146419464293	0.0	1.011953066323789	-0.5648738264324877	0.0
83	2.784067085953878	0.9525708296104289	-0.5842280098854479	0.0	0.9455009706325189	-0.5862183474415145	0.0	0.984782595219205	-0.688230053488921	0.0	0.9414171701608909	-0.785693482276559	0.0	0.9772363131443904	-0.8091062842144967	0.0	0.9674578987553775	-0.8104555790491956	0.0	0.9292953365296867	-0.8000543176997819	0.0	0.9562639049662573	-0.5847032671322949	0.0	0.9849908414534483	-0.6876940507917231	0.0	0.9439445137938873	-0.78350621953887	0.0	0.9844831207584106	-0.8058693517273219	0.0	0.9776772323394431	-0.8027664886025047	0.0	0.9308576114479379	-0.7961314500109838	0.0	0.9762399695668726	-0.4377429802431063	0.0	1.0014269024918083	-0.37646497911942306	0.0	1.0006014451122809	-0.40861456816571134	0.0	0.9566404661911138	-0.45238517436167475	0.0	0.933093135092828	-0.5207880761816339	0.0	0.9741832427241851	-0.571467285432491	0.0	0.9812412064899999	-0.45688478021489765	0.0	0.971503910668381	-0.519235208344436	0.0	1.005396995638885	-0.5527414436104727	0.0
84	2.817610062893081	0.9521971549304598	-0.5718731410859201	0.0	0.9448382340792735	-0.5740823860031714	0.0	0.9819281437190533	-0.6765634444428968	0.0	0.940950822324889	-0.7753626732980995	0.0	0.9760232744108089	-0.7994012131340191	0.0	0.966200133620747	-0.8012648422883455	0.0	0.9293853406801791	-0.7914354577158205	0.0	0.9548927090724713	-0.5721268882039597	0.0	0.9815499117238219	-0.6758850508200253	0.0	0.9434199134128612	-0.7734943972348829	0.0	0.9830462514012267	-0.7966636236510221	0.0	0.9764507530999462	-0.7936412422325178	0.0	0.93017541299148	-0.7873468897502162	0.0	0.9747717981893216	-0.42555829454492766	0.0	1.0002201357558407	-0.3636536866039898	0.0	0.9987775490576009	-0.39629129644835503	0.0	0.95635661193582	-0.4404013755938285	0.0	0.935433057020492	-0.5094246556971802	0.0	0.9717075768051616	-0.5679362625650006	0.0	0.9791030279171811	-0.44435115441150835	0.0	0.9677514407990243	-0.5053237638965943	0.0	0.9983931150905633	-0.5393411757666081	0.0
85	2.8511530398322846	0.9518260832954001	-0.560001632723107	0.0	0.9443894835535921	-0.5621940467057872	0.0	0.9784531451836999	-0.6654520204430571	0.0	0.9404290701792561	-0.7658967764651408	0.0	0.9750704692102853	-0.7902262935831467	0.0	0.9651022691052316	-0.7925400137932461	0.0	0.9296164911210513	-0.7832988094334548	0.0	0.9535228809518047	-0.5599578491848229	0.0	0.9773264115336271	-0.6647707489650739	0.0	0.9427690689565984	-0.7641433665705092	0.0	0.9818290879878246	-0.7878135307728614	0.0	0.9754466606909697	-0.7848457045578997	0.0	0.9295363259650218	-0.7788966338989948	0.0	0.973482741478775	-0.41359201662524314	0.0	0.998404331686308	-0.35100890502251686	0.0	0.9967776882553756	-0.3841080724022472	0.0	0.9563358400214944	-0.42853516842871414	0.0	0.9377323848909822	-0.4980786264146933	0.0	0.9700307386051356	-0.5615274925332024	0.0	0.9773787019602068	-0.43210873518026477	0.0	0.9644000681437771	-0.49157078923694414	0.0	0.991848134490405	-0.5263032293495006	0.0
86	2.884696016771488	0.9512917941075574	-0.5495515020689059	0.0	0.9441184181982084	-0.5515356624842186	0.0	0.9746660177354672	-0.6558125575047145	0.0	0.9399206763219045	-0.7580144663418742	0.0	0.9745212060986568	-0.7823153125220895	0.0	0.9643805551247463	-0.7849699155874085	0.0	0.9298989920843637	-0.7762187792921489	0.0	0.952054495304492	-0.5491714669852266	0.0	0.9727698959620029	-0.6552028034557321	0.0	0.9420650373206244	-0.7562058639204193	0.0	0.980945030921547	-0.7800369876616944	0.0	0.9747524565953476	-0.7771083065414924	0.0	0.9290677763378395	-0.7715563786360436	0.0	0.9724103496112397	-0.4029148224752516	0.0	0.9960641879646532	-0.3396466463886807	0.0	0.9948174940538163	-0.3732673588234821	0.0	0.9565840349269594	-0.4177282031631381	0.0	0.939641638681319	-0.4876148402195336	0.0	0.9692434507341255	-0.553676111809449	0.0	0.976220229796145	-0.42106949731457416	0.0	0.9619611987455078	-0.47918856103259855	0.0	0.986531535036061	-0.5149245341293949	0.0
